<svg xmlns="http://www.w3.org/2000/svg" viewBox="0 0 256 256">
  <rect width="256" height="256" fill="#2563eb" rx="32"/>
  <path d="M80 70h20v116H80z" fill="#ffffff"/>
  <path d="M140 70h50c22 0 38 16 38 38s-16 38-38 38h-30v30h-20V70zm20 20v36h30c11 0 18-7 18-18s-7-18-18-18h-30z" fill="#ffffff"/>
  <path d="M200 200l-12-12 8-8c3-3 3-8 0-11l-6-6c-3-3-8-3-11 0l-8 8-12-12 8-8c9-9 24-9 33 0l6 6c9 9 9 24 0 33z" fill="#60a5fa"/>
  <rect x="165" y="195" width="50" height="8" rx="2" fill="#60a5fa" transform="rotate(-45 190 199)"/>
</svg>